<svg id="a2e70c09-03a5-431b-86ef-5aa021050179" data-name="Layer 1" xmlns="http://www.w3.org/2000/svg" viewBox="0 0 785.63 1272.16">
  <defs>
    <style>
      .a213b57f-82cf-4da1-b162-40565fd3bd4a {
        fill: #ceff00;
      }
    </style>
  </defs>
  <path class="a213b57f-82cf-4da1-b162-40565fd3bd4a" d="M723.13,575.08,417.82,398.81V75.12a75,75,0,0,0-112.5-64.95L62.5,150.36a124.85,124.85,0,0,0-44.77,44.19c-.35.51-.67,1-1,1.57s-.6,1.08-.87,1.63A124.92,124.92,0,0,0,0,258.62v734a125.36,125.36,0,0,0,62.5,108.26l267.82,154.62a125.37,125.37,0,0,0,125,0l267.81-154.62a125.36,125.36,0,0,0,62.5-108.26V683.33A125.35,125.35,0,0,0,723.13,575.08ZM392.82,813a25,25,0,1,1-25,25A25,25,0,0,1,392.82,813ZM87.5,193.66,330.32,53.47a25,25,0,0,1,37.5,21.65V369.94L76.27,201.61A74.76,74.76,0,0,1,87.5,193.66ZM735.63,992.58a75.2,75.2,0,0,1-37.5,64.95L430.32,1212.16a75.23,75.23,0,0,1-75,0L87.5,1057.53A75.2,75.2,0,0,1,50,992.58v-734a74.21,74.21,0,0,1,1.27-13.7L367.82,427.67V767.26a75,75,0,1,0,50,0V456.54L698.13,618.38a75.21,75.21,0,0,1,37.5,65Z"/>
</svg>
